<?xml version="1.0" standalone="no"?>
<!DOCTYPE svg PUBLIC "-//W3C//DTD SVG 20010904//EN"
 "http://www.w3.org/TR/2001/REC-SVG-20010904/DTD/svg10.dtd">
<svg version="1.0" xmlns="http://www.w3.org/2000/svg"
 width="300.000000pt" height="300.000000pt" viewBox="0 0 300.000000 300.000000"
 preserveAspectRatio="xMidYMid meet">
<metadata>
Created by potrace 1.10, written by Peter Selinger 2001-2011
</metadata>
<g transform="translate(0.000000,300.000000) scale(0.100000,-0.100000)"
fill="#000000" stroke="none">
<path d="M1329 2402 c-26 -27 -40 -35 -43 -25 -9 23 -21 14 -43 -29 -19 -39
-28 -46 -95 -70 -79 -30 -184 -112 -213 -169 -8 -15 -27 -34 -42 -41 -17 -8
-29 -23 -31 -38 -2 -14 -16 -38 -32 -55 -32 -35 -44 -67 -35 -96 10 -31 49
-21 53 14 2 15 8 27 14 27 6 0 7 -7 2 -17 -5 -10 -9 -93 -9 -185 -1 -166 -1
-168 -27 -195 -64 -70 -167 -253 -203 -361 -22 -69 -12 -95 65 -165 58 -52 58
-52 75 -141 9 -50 23 -105 31 -124 19 -48 18 -54 -17 -90 -31 -32 -32 -33 -13
-53 23 -25 88 -64 134 -81 19 -6 49 -22 67 -34 l34 -23 -36 -17 c-88 -41 -91
-101 -5 -90 l47 6 -5 -30 c-6 -41 14 -46 90 -21 83 28 169 78 175 102 6 22 38
32 170 53 72 12 98 12 122 3 19 -7 29 -17 26 -25 -2 -7 10 -21 28 -32 41 -26
202 -62 252 -58 36 3 40 6 38 29 -1 22 3 26 28 27 95 3 42 66 -73 87 -21 4
-38 10 -38 14 0 3 16 17 35 30 74 50 132 152 156 270 7 40 10 109 7 191 l-6
129 32 -1 c17 -1 45 6 62 15 46 24 127 100 165 156 27 41 40 51 62 51 61 0
104 45 132 137 18 58 7 103 -30 123 -21 11 -24 21 -28 84 -5 92 -8 101 -39
137 -23 25 -30 28 -53 19 -14 -5 -47 -10 -73 -10 -26 0 -53 -4 -60 -8 -20 -13
-52 -79 -52 -107 0 -13 -11 -35 -25 -49 -29 -29 -33 -76 -10 -116 21 -37 19
-44 -25 -73 l-40 -26 -94 56 c-67 40 -92 61 -88 71 3 9 1 13 -5 9 -6 -4 -2 21
8 54 10 33 19 69 19 80 0 10 6 19 14 19 29 0 75 52 95 106 15 39 21 78 21 137
0 46 5 88 11 94 6 6 9 23 7 39 -4 38 -50 54 -176 59 -92 3 -95 4 -131 39 -49
47 -122 82 -205 97 l-68 13 28 23 c22 17 26 25 17 34 -10 10 -21 10 -51 1 -53
-16 -56 -15 -38 10 41 59 -9 66 -65 10z m35 -27 c-21 -51 -18 -57 19 -35 42
26 67 27 44 2 -28 -31 -20 -38 55 -52 40 -7 93 -22 118 -33 l45 -20 -33 -7
c-35 -8 -92 -55 -92 -76 0 -25 -112 -34 -139 -11 -28 24 -100 47 -145 47 -49
0 -121 -23 -147 -46 -13 -12 -104 -43 -127 -44 -2 0 5 11 16 25 39 49 118 106
186 132 50 20 74 36 87 58 15 24 19 26 19 10 0 -14 11 -7 48 33 27 29 51 52
55 52 3 0 -1 -16 -9 -35z m313 -180 c20 -8 34 -18 31 -21 -7 -7 -136 -34 -162
-34 -18 0 -18 1 -2 19 17 18 73 50 89 51 4 0 24 -7 44 -15z m-361 -46 c24 -6
44 -14 44 -18 0 -3 -56 -6 -125 -6 -69 0 -125 3 -125 6 0 11 64 27 113 28 27
1 68 -4 93 -10z m669 -17 c19 -11 18 -11 -10 -12 -25 -1 -27 -2 -10 -9 18 -8
20 -16 16 -97 l-4 -89 -8 67 c-4 36 -15 82 -24 101 -15 33 -21 36 -72 43 -110
13 -263 -15 -305 -56 -38 -38 -39 -107 -3 -175 14 -26 24 -50 21 -52 -7 -8
-46 58 -53 90 -3 16 -16 35 -29 44 -22 14 -26 14 -48 0 -13 -9 -26 -30 -30
-49 -10 -53 -50 -130 -89 -170 -48 -51 -57 -48 -13 4 58 67 81 124 81 197 0
59 -2 65 -33 91 -44 37 -115 43 -262 24 -131 -17 -169 -34 -187 -84 -27 -76
13 -220 79 -283 l33 -31 -35 20 c-26 14 -44 38 -70 89 -32 63 -35 79 -37 162
-2 51 -2 93 0 93 1 0 36 12 77 26 71 25 91 27 350 35 185 6 293 14 330 24 66
17 304 16 335 -3z m-93 -17 c3 -3 -30 -72 -73 -152 -43 -80 -81 -154 -84 -164
-9 -26 -25 -24 -72 10 l-41 30 75 140 75 141 57 0 c32 0 60 -2 63 -5z m-162
-9 c0 -2 -18 -36 -41 -77 -22 -41 -49 -94 -60 -119 l-20 -45 -19 23 c-37 44
-51 133 -27 166 19 26 167 73 167 52z m218 -112 c5 -99 -11 -157 -55 -193 -39
-32 -79 -43 -123 -35 l-29 6 24 32 c30 40 145 265 145 285 0 13 3 13 17 -2 13
-13 19 -38 21 -93z m-810 59 c-18 -21 -141 -230 -151 -256 -10 -26 -23 -14
-41 40 -24 70 -21 146 7 177 22 26 108 53 171 55 27 1 28 0 14 -16z m200 9 c9
-6 -5 -39 -57 -128 -38 -65 -84 -146 -103 -179 -31 -54 -37 -60 -64 -57 -46 5
-90 21 -107 40 -13 15 -6 31 80 175 l94 157 72 0 c40 0 78 -4 85 -8z m51 -55
c25 -74 -31 -198 -117 -264 -24 -18 -55 -33 -68 -33 l-25 0 24 33 c33 44 157
268 157 284 0 25 19 12 29 -20z m-535 -74 c-26 -19 -31 2 -8 29 18 19 19 19
23 2 2 -10 -5 -24 -15 -31z m668 -6 c18 -47 18 -47 -1 -37 -29 15 -36 13 -77
-25 -20 -19 -38 -34 -40 -33 -1 2 6 21 17 42 10 22 19 43 19 47 0 4 5 20 10
34 16 43 51 30 72 -28z m-628 -100 c9 -29 29 -73 47 -96 17 -24 37 -61 45 -84
18 -51 73 -119 121 -148 37 -23 32 -40 -6 -19 -14 7 -21 7 -21 0 0 -5 -4 -10
-10 -10 -5 0 -7 6 -5 13 3 7 -20 26 -55 45 -33 18 -60 28 -60 22 0 -5 -5 -10
-11 -10 -6 0 -9 6 -6 13 2 6 -8 19 -23 28 -24 15 -28 25 -33 85 -8 78 -9 214
-3 214 3 0 12 -24 20 -53z m688 0 c27 -18 48 -35 48 -38 0 -4 -19 -13 -42 -22
-33 -12 -64 -14 -136 -9 l-94 7 67 57 c74 65 67 64 157 5z m729 -18 c15 -7 24
-7 35 2 8 6 14 7 14 2 0 -6 -10 -15 -22 -22 -14 -7 -16 -9 -5 -6 10 3 25 -1
32 -9 12 -12 11 -15 -8 -20 -52 -14 -158 2 -173 25 -4 8 0 7 14 0 30 -16 153
-26 129 -11 -9 6 -40 11 -67 12 -28 0 -52 4 -55 8 -7 11 24 22 46 15 9 -3 20
-1 24 5 8 13 12 13 36 -1z m-411 -34 c0 -10 -60 -35 -82 -35 -15 1 -5 7 27 19
28 10 51 19 53 20 1 0 2 -1 2 -4z m-124 -53 c41 -2 74 -6 74 -7 0 -25 -47
-142 -66 -165 -25 -29 -21 -43 4 -18 9 9 14 9 22 0 6 -6 8 -10 5 -9 -2 2 -35
-27 -73 -64 -95 -92 -138 -114 -229 -112 -77 1 -145 18 -266 65 -71 28 -76 32
-62 48 13 15 12 18 -19 32 -48 23 -105 76 -138 127 -15 25 -28 48 -28 52 0 5
16 1 35 -7 77 -32 199 -9 274 51 l44 35 91 -6 c50 -4 93 -8 95 -10 1 -1 14 1
27 6 35 14 29 5 -19 -29 l-43 -29 -50 17 c-27 10 -59 23 -71 29 -25 14 -33 15
-33 4 0 -12 55 -41 106 -57 56 -17 83 -7 142 53 l37 38 33 -20 c22 -12 60 -21
108 -24z m423 36 c8 -9 43 -13 101 -13 51 0 91 -4 93 -10 1 -5 1 -40 -1 -77
l-4 -67 -39 -6 c-54 -9 -89 -39 -89 -76 0 -36 33 -104 57 -118 15 -9 12 -11
-17 -12 -64 -2 -105 3 -137 16 -32 13 -33 16 -33 69 0 51 19 258 25 264 1 1
18 -5 38 -13 38 -16 163 -21 184 -7 6 4 -25 7 -70 7 -86 0 -147 17 -147 41 0
17 22 18 39 2z m-1279 -205 c0 -19 117 -76 123 -60 3 7 6 4 6 -6 1 -23 62 -51
73 -34 5 7 7 4 5 -8 -1 -12 -12 -34 -23 -50 -27 -40 -49 -89 -71 -158 -9 -31
-21 -57 -25 -57 -4 0 -8 -16 -8 -36 l0 -37 -26 26 c-24 24 -24 27 -11 54 22
43 50 134 43 140 -5 5 -17 -19 -62 -126 -11 -27 -17 -32 -26 -23 -7 7 -19 12
-27 12 -8 0 1 -12 20 -27 47 -36 85 -86 104 -138 24 -62 8 -112 -59 -181 -69
-71 -84 -71 -88 3 -3 56 -4 58 -45 81 -24 13 -75 55 -114 93 -67 64 -71 71
-66 103 7 44 59 164 105 241 51 87 141 197 155 189 7 -3 4 1 -5 9 -24 19 -23
30 2 15 11 -7 20 -18 20 -25z m1525 6 c20 -31 -38 -179 -71 -179 -6 0 -27 16
-47 36 -43 43 -58 97 -34 121 27 27 139 44 152 22z m-573 -125 c106 -194 154
-457 117 -636 -26 -124 -118 -252 -215 -299 -53 -25 -148 -41 -177 -29 -20 8
-20 9 8 10 17 0 37 5 45 10 15 11 3 10 -172 -6 -35 -3 -97 -14 -140 -25 -42
-10 -96 -19 -119 -19 -126 0 -236 132 -247 296 -4 70 -3 75 26 112 17 22 36
51 42 66 15 40 12 109 -5 132 -8 10 -15 26 -15 34 0 28 51 172 91 258 42 89
48 92 104 58 26 -17 176 -66 212 -70 15 -2 50 -4 77 -5 27 0 46 -4 43 -7 -13
-13 14 -45 36 -42 17 2 22 10 22 31 -1 15 3 27 8 27 4 0 5 4 2 10 -3 5 0 7 9
4 28 -11 186 122 186 156 0 27 27 -1 62 -66z m73 39 c51 -29 62 -40 53 -50
-22 -27 -2 -20 54 17 l57 39 -1 -33 c-2 -57 32 -92 104 -108 l62 -13 -74 -75
c-84 -85 -135 -115 -172 -101 -18 7 -27 23 -40 75 -10 36 -36 105 -59 154 -49
103 -60 132 -53 132 3 0 34 -17 69 -37z m270 -105 c22 -5 60 -7 85 -4 33 5 41
3 33 -5 -7 -7 -39 -10 -87 -7 -58 2 -80 8 -93 22 -17 18 -17 19 2 11 11 -4 38
-12 60 -17z m-619 -49 c10 -17 -13 -36 -27 -22 -12 12 -4 33 11 33 5 0 12 -5
16 -11z m-773 -411 c25 -12 27 -18 27 -71 0 -65 11 -76 60 -59 l30 11 -1 -47
c-2 -92 41 -194 107 -251 37 -33 27 -40 -27 -17 -55 23 -113 80 -147 143 -44
83 -105 303 -84 303 4 0 20 -6 35 -12z m41 -313 c20 -30 33 -55 28 -55 -12 0
-102 59 -102 66 0 7 30 44 35 44 1 0 19 -25 39 -55z m1007 -135 c38 -11 71
-24 74 -29 2 -5 -12 -11 -33 -14 -26 -3 -47 2 -69 15 -45 27 -41 13 10 -33
l42 -38 -35 0 c-19 -1 -64 6 -100 14 -153 36 -200 75 -92 75 31 1 71 7 87 15
40 18 38 18 116 -5z m-703 -36 c49 -4 81 -11 79 -17 -7 -21 -213 -115 -225
-102 -3 3 4 26 16 50 28 58 28 64 -2 36 -19 -18 -33 -22 -72 -19 l-49 3 50 33
c40 27 57 32 85 28 19 -3 72 -9 118 -12z"/>
<path d="M1433 2093 c-24 -2 -43 -7 -43 -10 0 -2 9 -18 21 -34 16 -23 28 -29
58 -29 40 0 49 7 69 53 11 27 11 27 -26 25 -20 -1 -56 -3 -79 -5z m85 -30 c-4
-23 -54 -41 -75 -27 -28 17 -26 32 4 37 63 9 75 8 71 -10z"/>
<path d="M1076 865 c19 -83 118 -167 243 -206 95 -30 245 -36 350 -15 106 22
198 58 242 97 33 29 33 29 -26 -6 -190 -111 -452 -124 -640 -31 -80 40 -113
70 -149 141 -20 37 -25 42 -20 20z"/>
<path d="M796 444 c-67 -21 -96 -42 -96 -69 0 -30 46 -59 120 -75 30 -6 62
-14 70 -17 8 -4 19 -5 24 -4 5 1 22 -2 37 -8 16 -5 31 -6 33 -2 8 13 -41 31
-82 31 -21 0 -43 5 -49 11 -6 6 -26 12 -45 13 -45 4 -118 66 -77 66 7 0 17 7
23 15 6 9 27 17 46 20 65 8 100 17 100 26 0 13 -48 10 -104 -7z"/>
<path d="M2020 431 c13 -11 28 -17 33 -14 12 7 57 -26 57 -43 0 -8 -3 -13 -8
-10 -4 2 -15 -2 -25 -9 -15 -11 -15 -14 -3 -24 11 -10 19 -7 35 10 12 13 21
31 21 40 0 21 -52 54 -100 63 l-35 7 25 -20z"/>
<path d="M1985 314 c-11 -8 -25 -12 -31 -10 -6 2 -41 -4 -78 -14 -37 -10 -76
-16 -86 -13 -11 3 -34 0 -51 -6 -17 -6 -36 -8 -43 -4 -19 12 -40 12 -47 1 -6
-9 -20 -9 -53 -1 -35 8 -46 7 -50 -3 -4 -11 -19 -12 -71 -1 -11 2 -28 -1 -38
-7 -12 -8 -22 -8 -34 0 -12 7 -29 8 -53 2 -26 -7 -43 -5 -65 6 -18 9 -31 12
-33 6 -5 -14 -49 -13 -54 1 -3 9 -11 8 -28 -2 -14 -7 -32 -12 -40 -10 -8 2
-12 0 -8 -4 9 -10 106 -14 303 -15 176 0 269 6 413 24 70 9 221 47 228 57 9
15 -59 10 -81 -7z"/>
</g>
</svg>
